{
  "accessors": [
    {
      "bufferView": 2,
      "componentType": 5126,
      "count": 65532,
      "max": [
        10.993980407714844,
        0.4955199956893921,
        3.4319400787353516
      ],
      "min": [
        -8.904410362243652,
        -0.8636999726295471,
        -3.4319400787353516
      ],
      "type": "VEC3"
    },
    {
      "bufferView": 2,
      "byteOffset": 786384,
      "componentType": 5126,
      "count": 65532,
      "max": [
        0.9997550845146179,
        1.0,
        0.9997550845146179
      ],
      "min": [
        -0.9997550845146179,
        -1.0,
        -0.9997550845146179
      ],
      "type": "VEC3"
    },
    {
      "bufferView": 1,
      "componentType": 5126,
      "count": 65532,
      "max": [
        1.0,
        0.9750000238418579
      ],
      "min": [
        0.012500000186264515,
        0.2750000059604645
      ],
      "type": "VEC2"
    },
    {
      "bufferView": 0,
      "componentType": 5125,
      "count": 131307,
      "type": "SCALAR"
    },
    {
      "bufferView": 2,
      "byteOffset": 1572768,
      "componentType": 5126,
      "count": 65532,
      "max": [
        10.188750267028809,
        0.753000020980835,
        3.2929999828338623
      ],
      "min": [
        -0.6519299745559692,
        -0.6290000081062317,
        -3.2929999828338623
      ],
      "type": "VEC3"
    },
    {
      "bufferView": 2,
      "byteOffset": 2359152,
      "componentType": 5126,
      "count": 65532,
      "max": [
        1.0,
        1.0,
        0.9997543096542358
      ],
      "min": [
        -1.0,
        -1.0,
        -0.9997543096542358
      ],
      "type": "VEC3"
    },
    {
      "bufferView": 1,
      "byteOffset": 524256,
      "componentType": 5126,
      "count": 65532,
      "max": [
        1.0,
        0.9750000238418579
      ],
      "min": [
        0.012500000186264515,
        0.2750000059604645
      ],
      "type": "VEC2"
    },
    {
      "bufferView": 0,
      "byteOffset": 525228,
      "componentType": 5125,
      "count": 141942,
      "type": "SCALAR"
    },
    {
      "bufferView": 2,
      "byteOffset": 3145536,
      "componentType": 5126,
      "count": 65532,
      "max": [
        15.600000381469727,
        0.7900000214576721,
        3.619999885559082
      ],
      "min": [
        -8.949999809265137,
        -1.003999948501587,
        -3.619999885559082
      ],
      "type": "VEC3"
    },
    {
      "bufferView": 2,
      "byteOffset": 3931920,
      "componentType": 5126,
      "count": 65532,
      "max": [
        1.0,
        1.0,
        1.0
      ],
      "min": [
        -1.0,
        -1.0,
        -1.0
      ],
      "type": "VEC3"
    },
    {
      "bufferView": 1,
      "byteOffset": 1048512,
      "componentType": 5126,
      "count": 65532,
      "max": [
        0.987500011920929,
        0.9750000238418579
      ],
      "min": [
        0.012500000186264515,
        0.2750000059604645
      ],
      "type": "VEC2"
    },
    {
      "bufferView": 0,
      "byteOffset": 1092996,
      "componentType": 5125,
      "count": 136341,
      "type": "SCALAR"
    },
    {
      "bufferView": 2,
      "byteOffset": 4718304,
      "componentType": 5126,
      "count": 65532,
      "max": [
        14.199999809265137,
        0.610319972038269,
        3.389159917831421
      ],
      "min": [
        -6.95320987701416,
        -1.036810040473938,
        -3.389159917831421
      ],
      "type": "VEC3"
    },
    {
      "bufferView": 2,
      "byteOffset": 5504688,
      "componentType": 5126,
      "count": 65532,
      "max": [
        1.0,
        1.0,
        1.0
      ],
      "min": [
        -1.0,
        -1.0,
        -1.0
      ],
      "type": "VEC3"
    },
    {
      "bufferView": 1,
      "byteOffset": 1572768,
      "componentType": 5126,
      "count": 65532,
      "max": [
        1.0,
        0.9750000238418579
      ],
      "min": [
        0.012500000186264515,
        0.2750000059604645
      ],
      "type": "VEC2"
    },
    {
      "bufferView": 0,
      "byteOffset": 1638360,
      "componentType": 5125,
      "count": 131643,
      "type": "SCALAR"
    },
    {
      "bufferView": 2,
      "byteOffset": 6291072,
      "componentType": 5126,
      "count": 48613,
      "max": [
        7.352139949798584,
        0.34299999475479126,
        1.5140600204467773
      ],
      "min": [
        0.28101998567581177,
        -0.5504999756813049,
        -1.5140600204467773
      ],
      "type": "VEC3"
    },
    {
      "bufferView": 2,
      "byteOffset": 6874428,
      "componentType": 5126,
      "count": 48613,
      "max": [
        0.9997576475143433,
        1.0,
        0.9997576475143433
      ],
      "min": [
        -0.999757707118988,
        -1.0,
        -0.9997576475143433
      ],
      "type": "VEC3"
    },
    {
      "bufferView": 1,
      "byteOffset": 2097024,
      "componentType": 5126,
      "count": 48613,
      "max": [
        1.0,
        0.9750000238418579
      ],
      "min": [
        0.012500000186264515,
        0.2750000059604645
      ],
      "type": "VEC2"
    },
    {
      "bufferView": 0,
      "byteOffset": 2164932,
      "componentType": 5125,
      "count": 106233,
      "type": "SCALAR"
    }
  ],
  "asset": {
    "extras": {
      "author": "Admiral_Forever (https://sketchfab.com/Admiral_Forever)",
      "license": "CC-BY-4.0 (http://creativecommons.org/licenses/by/4.0/)",
      "source": "https://sketchfab.com/3d-models/star-wars-executor-super-star-destroyer-df018bc2cecc4a5182fde06ddc9b1496",
      "title": "Star Wars - Executor Super Star Destroyer"
    },
    "generator": "Sketchfab-11.0.0",
    "version": "2.0"
  },
  "bufferViews": [
    {
      "buffer": 0,
      "byteLength": 2589864,
      "name": "floatBufferViews",
      "target": 34963
    },
    {
      "buffer": 0,
      "byteLength": 2485928,
      "byteOffset": 2589864,
      "byteStride": 8,
      "name": "floatBufferViews",
      "target": 34962
    },
    {
      "buffer": 0,
      "byteLength": 7457784,
      "byteOffset": 5075792,
      "byteStride": 12,
      "name": "floatBufferViews",
      "target": 34962
    }
  ],
  "buffers": [
    {
      "byteLength": 12533576,
      "uri": "scene.bin"
    }
  ],
  "images": [
    {
      "uri": "textures/material_0_baseColor.png"
    },
    {
      "uri": "textures/material_0_metallicRoughness.png"
    },
    {
      "uri": "textures/material_0_emissive.png"
    }
  ],
  "materials": [
    {
      "doubleSided": true,
      "emissiveFactor": [
        1.0,
        1.0,
        1.0
      ],
      "emissiveTexture": {
        "index": 2
      },
      "name": "material_0",
      "pbrMetallicRoughness": {
        "baseColorFactor": [
          0.810373079425302,
          0.810373079425302,
          0.810373079425302,
          1.0
        ],
        "baseColorTexture": {
          "index": 0
        },
        "metallicRoughnessTexture": {
          "index": 1
        }
      }
    }
  ],
  "meshes": [
    {
      "name": "Object_0",
      "primitives": [
        {
          "attributes": {
            "NORMAL": 1,
            "POSITION": 0,
            "TEXCOORD_0": 2
          },
          "indices": 3,
          "material": 0,
          "mode": 4
        }
      ]
    },
    {
      "name": "Object_1",
      "primitives": [
        {
          "attributes": {
            "NORMAL": 5,
            "POSITION": 4,
            "TEXCOORD_0": 6
          },
          "indices": 7,
          "material": 0,
          "mode": 4
        }
      ]
    },
    {
      "name": "Object_2",
      "primitives": [
        {
          "attributes": {
            "NORMAL": 9,
            "POSITION": 8,
            "TEXCOORD_0": 10
          },
          "indices": 11,
          "material": 0,
          "mode": 4
        }
      ]
    },
    {
      "name": "Object_3",
      "primitives": [
        {
          "attributes": {
            "NORMAL": 13,
            "POSITION": 12,
            "TEXCOORD_0": 14
          },
          "indices": 15,
          "material": 0,
          "mode": 4
        }
      ]
    },
    {
      "name": "Object_4",
      "primitives": [
        {
          "attributes": {
            "NORMAL": 17,
            "POSITION": 16,
            "TEXCOORD_0": 18
          },
          "indices": 19,
          "material": 0,
          "mode": 4
        }
      ]
    }
  ],
  "nodes": [
    {
      "children": [
        1
      ],
      "matrix": [
        1.0,
        0.0,
        0.0,
        0.0,
        0.0,
        -1.0,
        0.0,
        0.0,
        0.0,
        0.0,
        -1.0,
        0.0,
        0.0,
        -0.12341293692588809,
        0.12339720129966733,
        1.0
      ],
      "name": "Sketchfab_model"
    },
    {
      "children": [
        2,
        3,
        4,
        5,
        6
      ],
      "name": "ExecutorOBJ.obj.cleaner.materialmerger.gles"
    },
    {
      "mesh": 0,
      "name": "Object_2"
    },
    {
      "mesh": 1,
      "name": "Object_3"
    },
    {
      "mesh": 2,
      "name": "Object_4"
    },
    {
      "mesh": 3,
      "name": "Object_5"
    },
    {
      "mesh": 4,
      "name": "Object_6"
    }
  ],
  "samplers": [
    {
      "magFilter": 9729,
      "minFilter": 9987,
      "wrapS": 10497,
      "wrapT": 10497
    }
  ],
  "scene": 0,
  "scenes": [
    {
      "name": "Sketchfab_Scene",
      "nodes": [
        0
      ]
    }
  ],
  "textures": [
    {
      "sampler": 0,
      "source": 0
    },
    {
      "sampler": 0,
      "source": 1
    },
    {
      "sampler": 0,
      "source": 2
    }
  ]
}
